<?xml version="1.0" standalone="no"?>
<!DOCTYPE svg PUBLIC "-//W3C//DTD SVG 20010904//EN"
 "http://www.w3.org/TR/2001/REC-SVG-20010904/DTD/svg10.dtd">
<svg version="1.0" xmlns="http://www.w3.org/2000/svg"
 width="740.000000pt" height="740.000000pt" viewBox="0 0 740.000000 740.000000"
 preserveAspectRatio="xMidYMid meet">

<g transform="translate(0.000000,740.000000) scale(0.100000,-0.100000)"
fill="#000000" stroke="none">
<path d="M3001 6874 c0 -11 3 -14 6 -6 3 7 2 16 -1 19 -3 4 -6 -2 -5 -13z"/>
<path d="M3517 6839 c5 -19 4 -20 -16 -10 -22 12 -27 5 -11 -19 6 -9 10 -11
10 -3 0 7 7 10 15 7 10 -4 15 0 15 14 0 12 -4 23 -9 26 -5 4 -7 -3 -4 -15z"/>
<path d="M4124 6805 c-8 -26 -8 -35 0 -35 19 0 36 22 36 47 0 35 -24 27 -36
-12z"/>
<path d="M3111 6589 c0 -13 3 -18 6 -10 5 11 7 11 14 0 5 -8 9 -9 9 -3 0 6 -7
17 -15 24 -13 10 -15 9 -14 -11z"/>
<path d="M5325 6463 c0 -19 6 -28 18 -29 12 -1 13 -1 2 3 -8 2 -15 9 -15 14 0
6 4 8 9 5 5 -4 8 2 7 11 -4 29 -22 25 -21 -4z"/>
<path d="M5490 6466 c0 -2 7 -7 16 -10 8 -3 12 -2 9 4 -6 10 -25 14 -25 6z"/>
<path d="M1690 6436 c0 -8 4 -17 9 -20 5 -4 7 3 4 14 -6 23 -13 26 -13 6z"/>
<path d="M4091 6431 c-11 -7 -11 -9 0 -13 8 -3 16 -31 21 -79 4 -41 10 -102
14 -137 7 -64 5 -74 -37 -152 -11 -19 -31 -57 -45 -85 -21 -42 -36 -56 -96
-90 -39 -22 -76 -49 -82 -60 -15 -28 -24 -33 -81 -45 -27 -6 -52 -14 -55 -18
-3 -4 -21 -17 -41 -29 l-36 -21 -16 27 c-44 74 -156 160 -262 201 -52 21 -78
24 -190 24 -147 1 -206 -13 -317 -71 -80 -42 -164 -116 -153 -134 5 -7 4 -10
-3 -5 -6 3 -17 -3 -25 -14 l-15 -21 -73 23 c-260 80 -591 -54 -704 -286 -35
-71 -52 -146 -34 -146 6 0 8 10 5 23 -5 19 -5 19 6 -3 25 -50 36 -53 48 -14 7
19 18 38 25 41 8 2 16 17 20 31 20 92 186 242 266 242 24 0 99 -74 139 -136
78 -123 77 -269 -1 -424 -48 -94 -105 -160 -140 -160 -29 0 -69 -26 -69 -44 0
-8 -16 -21 -36 -31 -30 -14 -38 -15 -45 -4 -6 11 -9 10 -15 -4 -12 -31 5 -75
48 -130 24 -30 50 -67 59 -83 12 -24 28 -33 78 -47 109 -30 179 -73 273 -166
l87 -86 17 67 c14 54 20 65 31 56 7 -6 13 -15 13 -20 0 -5 5 -14 12 -21 15
-17 41 9 88 87 44 73 113 136 192 175 88 45 116 42 167 -17 59 -66 60 -67 83
-120 16 -36 21 -65 19 -129 -2 -132 -54 -247 -164 -360 -50 -52 -83 -77 -116
-89 -25 -9 -53 -20 -61 -25 -32 -20 -40 -20 -56 -5 -27 28 -39 13 -37 -46 1
-43 11 -73 42 -134 23 -43 41 -84 41 -90 0 -6 11 -17 25 -24 14 -7 46 -42 71
-76 66 -90 195 -188 291 -220 76 -26 103 -74 68 -120 -25 -33 -18 -44 29 -44
28 0 51 6 61 17 16 15 15 18 -14 40 -44 34 -44 86 -1 108 42 22 141 121 175
175 33 52 64 128 75 185 4 22 11 55 15 74 6 24 5 32 -3 27 -6 -4 -14 -22 -18
-40 -7 -38 -58 -106 -80 -106 -26 0 -27 29 -1 113 14 45 28 91 31 102 3 11 21
44 39 72 l33 51 12 -26 c7 -14 12 -35 13 -46 0 -20 1 -20 9 1 19 47 40 202 40
296 0 118 -28 244 -73 332 -61 117 -186 215 -319 249 l-53 13 -12 64 c-17 90
-16 274 2 361 37 180 149 330 301 404 55 27 79 44 76 54 -3 12 -2 12 6 1 8
-11 19 -11 61 -2 113 24 256 8 381 -43 65 -27 65 -27 81 -7 9 11 19 17 23 14
3 -4 6 -1 6 6 0 6 22 47 50 91 27 44 46 80 43 80 -3 0 0 6 6 14 18 22 24 128
12 214 -6 42 -11 97 -12 122 -1 25 -8 57 -16 73 -7 15 -11 27 -9 27 12 0 -72
109 -110 143 -41 36 -75 46 -103 28z m-1028 -579 c-8 -5 3 -20 33 -46 24 -21
44 -45 44 -53 0 -7 10 -33 22 -56 32 -63 38 -104 27 -187 -13 -104 -55 -187
-138 -269 -57 -57 -78 -70 -146 -95 -44 -15 -94 -29 -111 -30 -16 -2 -36 -6
-42 -10 -17 -10 -15 -95 3 -130 8 -15 15 -36 15 -45 0 -25 63 -167 84 -190 19
-21 15 -51 -6 -51 -18 0 -109 137 -159 240 -65 133 -100 264 -106 400 -5 121
11 229 42 273 l15 21 0 -22 c0 -13 4 -21 9 -17 5 3 11 -5 13 -17 4 -32 22 -28
29 8 6 26 7 26 8 5 1 -34 24 -12 24 23 0 14 3 24 7 21 4 -2 12 7 18 20 16 35
89 112 138 145 22 16 67 38 100 49 60 21 100 28 77 13z m-1186 -494 c-3 -8 -6
-5 -6 6 -1 11 2 17 5 13 3 -3 4 -12 1 -19z"/>
<path d="M6034 6375 c-3 -14 -4 -29 0 -32 3 -4 6 4 6 16 0 12 4 19 10 16 6 -3
10 -2 10 4 0 23 -20 20 -26 -4z"/>
<path d="M5950 6325 c7 -8 27 -15 44 -15 l31 1 -34 14 c-43 19 -57 19 -41 0z"/>
<path d="M1856 6307 c2 -15 1 -27 -3 -26 -31 5 -47 -21 -23 -36 6 -4 10 -3 9
2 -3 20 2 33 13 31 16 -4 23 31 9 45 -7 7 -9 2 -5 -16z"/>
<path d="M5757 6250 c18 -4 39 -11 46 -16 7 -5 4 -1 -6 9 -11 9 -31 17 -46 16
-24 -1 -23 -2 6 -9z"/>
<path d="M3248 6193 c7 -3 16 -2 19 1 4 3 -2 6 -13 5 -11 0 -14 -3 -6 -6z"/>
<path d="M6008 6033 c4 -28 7 -31 23 -22 28 14 25 55 -4 55 -20 0 -22 -4 -19
-33z"/>
<path d="M2824 5945 c-18 -14 -18 -14 4 -8 12 3 22 9 22 14 0 12 -3 11 -26 -6z"/>
<path d="M1218 5884 c-32 -17 -46 -40 -64 -108 -10 -39 -11 -52 -1 -58 8 -5
15 7 23 42 14 60 39 100 65 107 10 3 19 12 19 19 0 17 -8 17 -42 -2z"/>
<path d="M5595 5708 c4 -29 9 -54 10 -56 2 -2 12 1 23 7 15 8 22 8 25 -2 10
-23 7 28 -4 66 -8 30 -14 37 -35 37 -25 0 -26 -1 -19 -52z"/>
<path d="M1135 5568 c12 -54 21 -65 34 -40 14 26 -2 72 -25 72 -12 0 -14 -6
-9 -32z"/>
<path d="M928 5458 c11 -14 10 -17 -7 -23 -21 -6 -21 -6 1 -36 16 -21 24 -26
30 -17 14 23 8 55 -14 74 -16 13 -19 14 -10 2z"/>
<path d="M5412 5394 c26 -13 54 -36 62 -52 9 -15 15 -20 16 -12 1 37 -64 91
-107 90 -10 -1 3 -12 29 -26z"/>
<path d="M1211 5284 c0 -11 3 -14 6 -6 3 7 2 16 -1 19 -3 4 -6 -2 -5 -13z"/>
<path d="M1841 5274 c0 -11 3 -14 6 -6 3 7 2 16 -1 19 -3 4 -6 -2 -5 -13z"/>
<path d="M6452 5194 c-7 -8 -8 -14 -3 -14 10 0 25 19 20 25 -2 1 -10 -3 -17
-11z"/>
<path d="M5674 5105 c-4 -8 -15 -15 -26 -15 -18 0 -19 -5 -13 -49 5 -38 3 -52
-10 -65 -9 -9 -12 -16 -6 -16 18 0 33 41 27 75 -5 26 -3 33 12 37 11 3 21 15
25 27 6 24 -1 29 -9 6z"/>
<path d="M5942 4844 c-13 -9 -47 -53 -76 -97 -29 -45 -74 -101 -99 -124 -41
-38 -52 -43 -93 -43 -46 0 -46 0 -31 -22 20 -30 75 -26 133 7 38 23 106 100
134 154 19 38 91 111 108 111 13 0 12 3 -4 15 -25 19 -44 19 -72 -1z"/>
<path d="M840 4638 c16 -20 12 -38 -7 -31 -15 5 -14 3 2 -10 19 -15 20 -14 23
5 2 11 -3 27 -12 34 -9 8 -11 9 -6 2z"/>
<path d="M6742 4613 c15 -16 28 -39 31 -53 l4 -25 2 26 c1 28 -32 79 -52 79
-6 0 1 -12 15 -27z"/>
<path d="M5600 4394 c9 -39 4 -67 -11 -58 -9 5 -13 -13 -11 -46 1 -19 -26 -70
-52 -97 -67 -68 -96 -150 -56 -160 22 -6 26 -18 10 -28 -20 -12 0 -65 25 -65
12 0 64 57 58 64 -4 3 -2 6 3 6 21 0 93 176 101 248 9 76 8 97 -4 95 -6 -1
-10 5 -9 13 0 9 -13 27 -31 40 l-31 25 8 -37z"/>
<path d="M1105 4410 c3 -5 13 -10 21 -10 8 0 14 5 14 10 0 6 -9 10 -21 10 -11
0 -17 -4 -14 -10z"/>
<path d="M4606 4293 c-4 -9 -3 -20 1 -24 4 -4 9 3 9 17 2 28 -1 31 -10 7z"/>
<path d="M1467 4243 c-11 -10 -8 -43 3 -43 6 0 10 11 10 25 0 26 -2 29 -13 18z"/>
<path d="M6415 4090 c-27 -16 -68 -45 -90 -64 -38 -33 -39 -36 -23 -52 16 -16
19 -15 56 18 69 62 127 91 175 86 23 -3 48 -6 56 -9 28 -8 24 30 -4 41 -51 19
-117 12 -170 -20z"/>
<path d="M6900 3931 c-7 -19 -27 -42 -44 -52 -32 -20 -19 -27 15 -9 21 12 52
66 47 82 -2 6 -10 -3 -18 -21z"/>
<path d="M4761 3844 c-8 -38 -16 -76 -19 -84 -5 -13 -4 -13 10 0 9 8 14 19 11
23 -3 4 1 30 7 57 7 27 10 55 8 61 -2 6 -10 -19 -17 -57z"/>
<path d="M4781 3829 c-9 -21 -10 -37 -4 -52 8 -18 11 -14 16 28 8 58 6 64 -12
24z"/>
<path d="M1227 3630 c-24 -37 -24 -40 -8 -54 24 -22 26 -21 60 28 l31 44 -29
10 c-27 9 -30 7 -54 -28z"/>
<path d="M5510 3629 c0 -11 4 -18 10 -14 5 3 7 12 3 20 -7 21 -13 19 -13 -6z"/>
<path d="M4686 3623 c-6 -14 -5 -15 5 -6 7 7 10 15 7 18 -3 3 -9 -2 -12 -12z"/>
<path d="M6829 3468 c-62 -62 -76 -147 -50 -295 13 -72 13 -73 39 -67 15 4 28
7 29 8 1 1 -5 30 -12 66 -17 77 -19 168 -5 205 5 14 24 39 42 55 26 24 29 31
18 44 -18 22 -24 20 -61 -16z"/>
<path d="M4673 3323 c-15 -5 -17 -23 -4 -23 5 0 11 7 15 15 3 8 4 15 3 14 -1
0 -8 -3 -14 -6z"/>
<path d="M4861 3310 l-53 -5 21 -19 c14 -13 35 -20 57 -19 43 1 50 7 38 30 -7
15 -18 17 -63 13z"/>
<path d="M4717 3296 c-3 -8 0 -17 7 -19 10 -4 12 1 9 14 -6 23 -9 24 -16 5z"/>
<path d="M620 3265 c-11 -13 -9 -20 11 -41 47 -51 94 -67 183 -62 45 3 106 13
137 22 51 15 56 19 51 41 -5 30 -3 30 -99 4 -109 -30 -182 -24 -226 19 -38 37
-40 37 -57 17z"/>
<path d="M5616 3224 c-3 -9 -2 -23 2 -31 7 -11 9 -6 10 16 1 34 -3 39 -12 15z"/>
<path d="M3840 3180 c0 -5 5 -10 11 -10 5 0 7 5 4 10 -3 6 -8 10 -11 10 -2 0
-4 -4 -4 -10z"/>
<path d="M3042 3127 c-12 -13 -22 -27 -22 -32 0 -5 7 1 16 13 9 13 26 27 38
32 14 6 16 9 5 9 -8 1 -25 -9 -37 -22z"/>
<path d="M3554 3126 c-61 -28 -68 -37 -59 -78 l7 -31 22 26 c11 15 39 35 62
44 36 16 40 21 33 41 -5 12 -10 22 -11 22 -2 0 -26 -11 -54 -24z"/>
<path d="M5823 3133 c-7 -3 -13 -11 -13 -20 0 -12 2 -12 16 2 18 17 16 25 -3
18z"/>
<path d="M3351 3076 c-16 -18 -11 -68 5 -58 15 9 29 72 16 72 -5 0 -15 -6 -21
-14z"/>
<path d="M4238 3083 c7 -3 16 -2 19 1 4 3 -2 6 -13 5 -11 0 -14 -3 -6 -6z"/>
<path d="M4274 3039 c-1 -15 3 -26 7 -23 11 6 12 41 2 47 -5 3 -8 -8 -9 -24z"/>
<path d="M3445 3015 c-13 -32 -16 -58 -11 -92 13 -87 18 -92 32 -28 6 33 13
65 14 70 6 26 -1 95 -9 95 -5 0 -17 -20 -26 -45z"/>
<path d="M5054 3042 c3 -5 1 -12 -5 -14 -7 -2 -5 -9 5 -17 14 -12 16 -11 16 7
0 12 -5 24 -12 28 -6 4 -8 3 -4 -4z"/>
<path d="M3986 3025 c-19 -15 -19 -15 2 -15 13 0 22 6 22 15 0 18 0 18 -24 0z"/>
<path d="M4045 3010 c-3 -5 1 -10 10 -10 9 0 13 5 10 10 -3 6 -8 10 -10 10 -2
0 -7 -4 -10 -10z"/>
<path d="M2861 2982 c-6 -12 -11 -27 -11 -34 1 -7 8 0 16 15 9 16 13 31 11 34
-3 2 -10 -4 -16 -15z"/>
<path d="M4304 2978 l-19 -23 23 19 c12 11 22 21 22 23 0 8 -8 2 -26 -19z"/>
<path d="M1536 2965 c4 -8 11 -15 16 -15 6 0 5 6 -2 15 -7 8 -14 15 -16 15 -2
0 -1 -7 2 -15z"/>
<path d="M818 2949 c-40 -21 -71 -69 -83 -129 -3 -19 -9 -43 -12 -53 -4 -14 0
-18 12 -15 12 2 22 21 32 58 17 67 36 97 74 118 16 10 29 23 29 30 0 16 -8 15
-52 -9z"/>
<path d="M1580 2955 c-7 -8 -8 -15 -2 -15 5 0 15 7 22 15 7 8 8 15 2 15 -5 0
-15 -7 -22 -15z"/>
<path d="M4310 2926 c0 -2 7 -6 15 -10 8 -3 15 -1 15 4 0 6 -7 10 -15 10 -8 0
-15 -2 -15 -4z"/>
<path d="M2895 2910 c3 -5 10 -10 16 -10 5 0 9 5 9 10 0 6 -7 10 -16 10 -8 0
-12 -4 -9 -10z"/>
<path d="M3411 2910 c-1 -8 -6 -36 -10 -62 -7 -42 -5 -48 11 -54 11 -3 21 -4
22 -2 1 1 -3 32 -10 68 -6 36 -12 58 -13 50z"/>
<path d="M5980 2898 c-1 -13 -7 -40 -14 -60 -15 -43 -15 -43 23 -23 28 14 41
39 41 83 0 17 -6 22 -25 22 -19 0 -25 -5 -25 -22z"/>
<path d="M5474 2835 c-9 -37 2 -41 14 -6 7 18 7 31 2 31 -5 0 -12 -11 -16 -25z"/>
<path d="M3285 2780 c3 -5 8 -10 11 -10 2 0 4 5 4 10 0 6 -5 10 -11 10 -5 0
-7 -4 -4 -10z"/>
<path d="M3695 2770 c10 -11 22 -17 26 -14 13 8 11 14 -3 12 -7 -2 -12 3 -10
10 1 6 -5 12 -15 12 -14 0 -14 -2 2 -20z"/>
<path d="M5484 2782 c9 -14 58 -22 53 -8 -2 6 -16 12 -31 14 -16 2 -26 -1 -22
-6z"/>
<path d="M4354 2686 c-3 -14 -1 -33 4 -42 9 -16 12 -14 20 16 5 19 7 38 5 43
-8 15 -23 6 -29 -17z"/>
<path d="M1193 2623 c9 -55 35 -84 107 -120 75 -38 113 -45 117 -23 3 11 -12
22 -49 35 -95 33 -148 80 -148 130 0 8 -7 15 -16 15 -14 0 -15 -7 -11 -37z"/>
<path d="M4250 2601 c-8 -16 -6 -21 10 -26 28 -9 25 -21 -9 -35 -27 -11 -47
-37 -37 -47 2 -2 20 6 40 18 25 14 39 31 43 50 4 19 12 29 24 29 31 0 30 17
-2 24 -48 9 -57 8 -69 -13z"/>
<path d="M4560 2542 c6 -13 14 -21 18 -18 3 4 -2 14 -12 24 -18 16 -18 16 -6
-6z"/>
<path d="M4612 2548 c-19 -19 -14 -29 8 -16 20 13 27 28 12 28 -4 0 -13 -5
-20 -12z"/>
<path d="M1990 2541 c0 -7 -5 -9 -12 -5 -7 5 -8 3 -3 -5 5 -9 10 -10 18 -2 6
6 8 14 4 18 -4 3 -7 1 -7 -6z"/>
<path d="M4973 2483 c-10 -4 -9 -12 3 -35 11 -20 19 -27 26 -20 13 13 -12 61
-29 55z"/>
<path d="M4200 2463 c0 -29 29 -58 43 -44 8 8 4 19 -16 38 -26 26 -27 27 -27
6z"/>
<path d="M5740 2460 c0 -5 5 -10 10 -10 6 0 10 5 10 10 0 6 -4 10 -10 10 -5 0
-10 -4 -10 -10z"/>
<path d="M5308 2427 c-21 -6 -38 -15 -38 -20 0 -5 8 -6 17 -3 9 4 36 10 60 13
23 3 40 10 37 14 -6 11 -27 10 -76 -4z"/>
<path d="M2843 2254 c1 -11 -4 -18 -10 -16 -7 1 -13 -2 -13 -8 0 -15 16 -12
30 5 9 11 10 19 3 26 -8 8 -11 6 -10 -7z"/>
<path d="M2330 2223 c0 -2 5 -13 10 -24 8 -14 21 -19 53 -18 23 1 34 3 25 6
-21 5 -24 29 -5 36 6 2 -9 4 -35 4 -27 0 -48 -2 -48 -4z"/>
<path d="M2220 2177 c0 -23 5 -34 15 -34 10 0 15 11 15 34 0 23 -5 33 -15 33
-10 0 -15 -10 -15 -33z"/>
<path d="M4606 2147 c3 -10 9 -15 12 -12 3 3 0 11 -7 18 -10 9 -11 8 -5 -6z"/>
<path d="M5475 2070 c-4 -6 8 -27 25 -46 38 -44 52 -78 44 -110 -7 -26 10 -34
20 -8 12 31 6 61 -22 105 -35 54 -58 74 -67 59z"/>
<path d="M4834 1915 c-9 -14 -15 -28 -12 -30 2 -2 12 9 22 25 21 36 13 40 -10
5z"/>
<path d="M4710 1922 c0 -18 29 -59 45 -66 29 -11 23 12 -10 44 -19 19 -35 28
-35 22z m35 -32 c10 -11 16 -20 13 -20 -3 0 -13 9 -23 20 -10 11 -16 20 -13
20 3 0 13 -9 23 -20z"/>
<path d="M4249 1883 c-13 -16 -12 -17 4 -4 16 13 21 21 13 21 -2 0 -10 -8 -17
-17z"/>
<path d="M1903 1873 c-7 -2 -13 -12 -12 -21 0 -11 2 -12 6 -4 2 6 9 10 14 6 5
-3 9 2 9 10 0 9 -1 16 -2 15 -2 0 -9 -3 -15 -6z"/>
<path d="M4081 1594 c0 -11 3 -14 6 -6 3 7 2 16 -1 19 -3 4 -6 -2 -5 -13z"/>
<path d="M3271 1587 c-1 -11 -6 -15 -13 -11 -7 5 -8 3 -3 -5 10 -16 29 2 22
21 -4 8 -6 7 -6 -5z"/>
<path d="M2356 1572 c-3 -5 1 -9 9 -9 8 0 12 4 9 9 -3 4 -7 8 -9 8 -2 0 -6 -4
-9 -8z"/>
<path d="M2447 1549 c7 -7 15 -10 18 -7 3 3 -2 9 -12 12 -14 6 -15 5 -6 -5z"/>
<path d="M4013 1470 c-49 -10 -75 -23 -123 -60 -58 -45 -81 -53 -156 -56 -70
-3 -72 -2 -134 41 -80 56 -146 79 -213 72 -59 -5 -81 -27 -73 -72 3 -16 8 -88
12 -160 7 -142 13 -155 67 -155 15 0 47 13 70 29 23 15 76 45 117 66 71 36 78
37 147 32 42 -3 73 -1 75 4 4 13 54 -8 141 -59 89 -52 124 -59 182 -33 53 23
54 31 26 147 -11 44 -23 107 -27 141 -8 76 -17 81 -111 63z"/>
<path d="M4600 1330 c-9 -6 -10 -10 -3 -10 6 0 15 5 18 10 8 12 4 12 -15 0z"/>
<path d="M4318 903 c-13 -3 -15 -9 -8 -27 8 -22 7 -23 -33 -19 -33 4 -47 0
-65 -17 -24 -23 -26 -50 -4 -58 8 -2 12 7 12 26 0 29 2 30 58 36 31 3 70 6 86
6 l29 1 -28 29 c-16 17 -29 29 -29 29 -1 -1 -9 -3 -18 -6z"/>
<path d="M4420 883 c-28 -36 -7 -44 24 -10 22 24 24 37 5 37 -4 0 -17 -12 -29
-27z"/>
</g>
</svg>
